<svg xmlns="http://www.w3.org/2000/svg" height="100%" width="100%" viewBox="0 0 300.95 300.95" xml:space="preserve">
    <path d="M53.43 268.645c11.635 0 21.125-9.425 21.125-21.125 0-11.635-9.49-21.125-21.125-21.125s-21.125 9.49-21.125 21.125 9.49 21.125 21.125 21.125m0-32.5c6.24 0 11.375 5.135 11.375 11.375s-5.135 11.375-11.375 11.375-11.375-5.135-11.375-11.375 5.135-11.375 11.375-11.375m194.09-161.59c11.7 0 21.125-9.49 21.125-21.125s-9.49-21.125-21.125-21.125-21.125 9.49-21.125 21.125 9.49 21.125 21.125 21.125m0-32.5c6.305 0 11.375 5.07 11.375 11.375 0 6.24-5.135 11.375-11.375 11.375s-11.375-5.135-11.375-11.375 5.135-11.375 11.375-11.375M33.8 73.06a4.82 4.82 0 0 0 3.445 1.43c1.235 0 2.47-.455 3.445-1.43l12.74-12.74 12.74 12.74a4.82 4.82 0 0 0 3.445 1.43c1.235 0 2.47-.455 3.445-1.43 1.885-1.885 1.885-5.005 0-6.89L60.32 53.43l12.74-12.74c1.885-1.885 1.885-5.005 0-6.89s-5.005-1.885-6.89 0L53.43 46.54 40.69 33.8c-1.885-1.885-5.005-1.885-6.89 0s-1.885 5.005 0 6.89l12.74 12.74L33.8 66.17c-1.885 1.885-1.885 5.005 0 6.89"/>
    <path d="M296.075 0H4.875C2.21 0 0 2.21 0 4.875v291.2c0 2.665 2.21 4.875 4.875 4.875h291.2c2.665 0 4.875-2.21 4.875-4.875V4.875c0-2.665-2.21-4.875-4.875-4.875M97.045 291.2H9.75v-87.295h87.295zm0-97.11H9.75v-87.295h87.295zm0-97.045H9.75V9.75h87.295zM194.09 291.2h-87.295v-87.295h87.295zm0-97.045h-87.295v-87.36h87.295zm0-97.11h-87.295V9.75h87.295zM291.2 291.2h-87.295v-87.295H291.2zm0-97.045h-87.295v-87.36H291.2zm0-97.11h-87.295V9.75H291.2z"/>
    <path d="M150.475 171.6c11.635 0 21.125-9.49 21.125-21.125s-9.49-21.125-21.125-21.125-21.125 9.49-21.125 21.125 9.49 21.125 21.125 21.125m0-32.5c6.24 0 11.375 5.135 11.375 11.375s-5.135 11.375-11.375 11.375-11.375-5.135-11.375-11.375 5.135-11.375 11.375-11.375m90.155 108.42-12.74 12.74c-1.885 1.885-1.885 5.005 0 6.89.975.975 2.21 1.43 3.445 1.43s2.47-.455 3.445-1.43l12.74-12.74 12.74 12.74c.975.975 2.21 1.43 3.445 1.43s2.47-.455 3.445-1.43c1.885-1.885 1.885-5.005 0-6.89l-12.74-12.74 12.74-12.74c1.885-1.885 1.885-5.005 0-6.89s-5.005-1.885-6.89 0l-12.74 12.74-12.74-12.74c-1.885-1.885-5.005-1.885-6.89 0s-1.885 5.005 0 6.89z"/>
</svg>